<mxfile host="app.diagrams.net" modified="2023-09-16T05:36:49.524Z" agent="Mozilla/5.0 (X11; Ubuntu; Linux x86_64; rv:109.0) Gecko/20100101 Firefox/117.0" etag="-CDkfvd6E4hcVXIL7NQg" version="21.7.5" type="device">
  <diagram name="Page-1" id="c3XvPNeHTe6t33S5__Xy">
    <mxGraphModel dx="1386" dy="774" grid="0" gridSize="10" guides="1" tooltips="1" connect="1" arrows="1" fold="1" page="1" pageScale="1" pageWidth="3300" pageHeight="2339" background="#000000" math="0" shadow="0">
      <root>
        <mxCell id="0" />
        <mxCell id="1" parent="0" />
        <mxCell id="lTskOxw1Glk7iutnJEJL-1" value="Traveler" style="swimlane;fontStyle=0;childLayout=stackLayout;horizontal=1;startSize=30;horizontalStack=0;resizeParent=1;resizeParentMax=0;resizeLast=0;collapsible=1;marginBottom=0;whiteSpace=wrap;html=1;hachureGap=4;fontFamily=Architects Daughter;fontSource=https%3A%2F%2Ffonts.googleapis.com%2Fcss%3Ffamily%3DArchitects%2BDaughter;fontSize=20;labelBackgroundColor=none;rounded=1;sketch=1;curveFitting=1;jiggle=2;fillColor=#008a00;fontColor=#ffffff;strokeColor=#005700;" parent="1" vertex="1">
          <mxGeometry x="30" y="70" width="330" height="270" as="geometry" />
        </mxCell>
        <mxCell id="lTskOxw1Glk7iutnJEJL-88" value="Receive Notifications" style="text;strokeColor=#005700;fillColor=#008a00;align=left;verticalAlign=middle;spacingLeft=4;spacingRight=4;overflow=hidden;points=[[0,0.5],[1,0.5]];portConstraint=eastwest;rotatable=0;whiteSpace=wrap;html=1;fontSize=20;fontFamily=Architects Daughter;labelBackgroundColor=none;rounded=1;sketch=1;curveFitting=1;jiggle=2;fontColor=#ffffff;" parent="lTskOxw1Glk7iutnJEJL-1" vertex="1">
          <mxGeometry y="30" width="330" height="30" as="geometry" />
        </mxCell>
        <mxCell id="ejbAzaZ3bpdmgrdd9fdl-6" value="View Trips" style="text;strokeColor=#005700;fillColor=#008a00;align=left;verticalAlign=middle;spacingLeft=4;spacingRight=4;overflow=hidden;points=[[0,0.5],[1,0.5]];portConstraint=eastwest;rotatable=0;whiteSpace=wrap;html=1;fontSize=20;fontFamily=Architects Daughter;labelBackgroundColor=none;rounded=1;sketch=1;curveFitting=1;jiggle=2;fontColor=#ffffff;" parent="lTskOxw1Glk7iutnJEJL-1" vertex="1">
          <mxGeometry y="60" width="330" height="30" as="geometry" />
        </mxCell>
        <mxCell id="lTskOxw1Glk7iutnJEJL-4" value="View Yearly Reports" style="text;strokeColor=#005700;fillColor=#008a00;align=left;verticalAlign=middle;spacingLeft=4;spacingRight=4;overflow=hidden;points=[[0,0.5],[1,0.5]];portConstraint=eastwest;rotatable=0;whiteSpace=wrap;html=1;fontSize=20;fontFamily=Architects Daughter;labelBackgroundColor=none;rounded=1;sketch=1;curveFitting=1;jiggle=2;fontColor=#ffffff;" parent="lTskOxw1Glk7iutnJEJL-1" vertex="1">
          <mxGeometry y="90" width="330" height="30" as="geometry" />
        </mxCell>
        <mxCell id="lTskOxw1Glk7iutnJEJL-2" value="CRUD Reservations" style="text;strokeColor=#005700;fillColor=#008a00;align=left;verticalAlign=middle;spacingLeft=4;spacingRight=4;overflow=hidden;points=[[0,0.5],[1,0.5]];portConstraint=eastwest;rotatable=0;whiteSpace=wrap;html=1;fontSize=20;fontFamily=Architects Daughter;labelBackgroundColor=none;rounded=1;sketch=1;curveFitting=1;jiggle=2;fontColor=#ffffff;" parent="lTskOxw1Glk7iutnJEJL-1" vertex="1">
          <mxGeometry y="120" width="330" height="30" as="geometry" />
        </mxCell>
        <mxCell id="lTskOxw1Glk7iutnJEJL-74" value="Ask for help/support" style="text;strokeColor=#005700;fillColor=#008a00;align=left;verticalAlign=middle;spacingLeft=4;spacingRight=4;overflow=hidden;points=[[0,0.5],[1,0.5]];portConstraint=eastwest;rotatable=0;whiteSpace=wrap;html=1;fontSize=20;fontFamily=Architects Daughter;labelBackgroundColor=none;rounded=1;sketch=1;curveFitting=1;jiggle=2;fontColor=#ffffff;" parent="lTskOxw1Glk7iutnJEJL-1" vertex="1">
          <mxGeometry y="150" width="330" height="30" as="geometry" />
        </mxCell>
        <mxCell id="lTskOxw1Glk7iutnJEJL-79" value="Give Mail Access" style="text;strokeColor=#005700;fillColor=#008a00;align=left;verticalAlign=middle;spacingLeft=4;spacingRight=4;overflow=hidden;points=[[0,0.5],[1,0.5]];portConstraint=eastwest;rotatable=0;whiteSpace=wrap;html=1;fontSize=20;fontFamily=Architects Daughter;labelBackgroundColor=none;rounded=1;sketch=1;curveFitting=1;jiggle=2;fontColor=#ffffff;" parent="lTskOxw1Glk7iutnJEJL-1" vertex="1">
          <mxGeometry y="180" width="330" height="30" as="geometry" />
        </mxCell>
        <mxCell id="lTskOxw1Glk7iutnJEJL-83" value="forward Confirmation Mail" style="text;strokeColor=#005700;fillColor=#008a00;align=left;verticalAlign=middle;spacingLeft=4;spacingRight=4;overflow=hidden;points=[[0,0.5],[1,0.5]];portConstraint=eastwest;rotatable=0;whiteSpace=wrap;html=1;fontSize=20;fontFamily=Architects Daughter;labelBackgroundColor=none;rounded=1;sketch=1;curveFitting=1;jiggle=2;fontColor=#ffffff;" parent="lTskOxw1Glk7iutnJEJL-1" vertex="1">
          <mxGeometry y="210" width="330" height="30" as="geometry" />
        </mxCell>
        <mxCell id="lTskOxw1Glk7iutnJEJL-93" value="Share Trip" style="text;strokeColor=#005700;fillColor=#008a00;align=left;verticalAlign=middle;spacingLeft=4;spacingRight=4;overflow=hidden;points=[[0,0.5],[1,0.5]];portConstraint=eastwest;rotatable=0;whiteSpace=wrap;html=1;fontSize=20;fontFamily=Architects Daughter;labelBackgroundColor=none;rounded=1;sketch=1;curveFitting=1;jiggle=2;fontColor=#ffffff;" parent="lTskOxw1Glk7iutnJEJL-1" vertex="1">
          <mxGeometry y="240" width="330" height="30" as="geometry" />
        </mxCell>
        <mxCell id="lTskOxw1Glk7iutnJEJL-31" value="Analytics consumer" style="swimlane;fontStyle=0;childLayout=stackLayout;horizontal=1;startSize=30;horizontalStack=0;resizeParent=1;resizeParentMax=0;resizeLast=0;collapsible=1;marginBottom=0;whiteSpace=wrap;html=1;hachureGap=4;fontFamily=Architects Daughter;fontSource=https%3A%2F%2Ffonts.googleapis.com%2Fcss%3Ffamily%3DArchitects%2BDaughter;fontSize=20;labelBackgroundColor=none;rounded=1;sketch=1;curveFitting=1;jiggle=2;fillColor=#008a00;fontColor=#ffffff;strokeColor=#005700;" parent="1" vertex="1">
          <mxGeometry x="30" y="600" width="330" height="90" as="geometry" />
        </mxCell>
        <mxCell id="lTskOxw1Glk7iutnJEJL-32" value="Query analytics data" style="text;strokeColor=#005700;fillColor=#008a00;align=left;verticalAlign=middle;spacingLeft=4;spacingRight=4;overflow=hidden;points=[[0,0.5],[1,0.5]];portConstraint=eastwest;rotatable=0;whiteSpace=wrap;html=1;fontSize=20;fontFamily=Architects Daughter;labelBackgroundColor=none;rounded=1;sketch=1;curveFitting=1;jiggle=2;fontColor=#ffffff;" parent="lTskOxw1Glk7iutnJEJL-31" vertex="1">
          <mxGeometry y="30" width="330" height="30" as="geometry" />
        </mxCell>
        <mxCell id="lTskOxw1Glk7iutnJEJL-33" value="Pay" style="text;strokeColor=#005700;fillColor=#008a00;align=left;verticalAlign=middle;spacingLeft=4;spacingRight=4;overflow=hidden;points=[[0,0.5],[1,0.5]];portConstraint=eastwest;rotatable=0;whiteSpace=wrap;html=1;fontSize=20;fontFamily=Architects Daughter;labelBackgroundColor=none;rounded=1;sketch=1;curveFitting=1;jiggle=2;fontColor=#ffffff;" parent="lTskOxw1Glk7iutnJEJL-31" vertex="1">
          <mxGeometry y="60" width="330" height="30" as="geometry" />
        </mxCell>
        <mxCell id="lTskOxw1Glk7iutnJEJL-34" value="System" style="swimlane;fontStyle=0;childLayout=stackLayout;horizontal=1;startSize=30;horizontalStack=0;resizeParent=1;resizeParentMax=0;resizeLast=0;collapsible=1;marginBottom=0;whiteSpace=wrap;html=1;hachureGap=4;fontFamily=Architects Daughter;fontSource=https%3A%2F%2Ffonts.googleapis.com%2Fcss%3Ffamily%3DArchitects%2BDaughter;fontSize=20;labelBackgroundColor=none;rounded=1;sketch=1;curveFitting=1;jiggle=2;fillColor=#008a00;fontColor=#ffffff;strokeColor=#005700;" parent="1" vertex="1">
          <mxGeometry x="30" y="850" width="330" height="270" as="geometry" />
        </mxCell>
        <mxCell id="lTskOxw1Glk7iutnJEJL-42" value="Gather analytics" style="text;strokeColor=#005700;fillColor=#008a00;align=left;verticalAlign=middle;spacingLeft=4;spacingRight=4;overflow=hidden;points=[[0,0.5],[1,0.5]];portConstraint=eastwest;rotatable=0;whiteSpace=wrap;html=1;fontSize=20;fontFamily=Architects Daughter;labelBackgroundColor=none;rounded=1;sketch=1;curveFitting=1;jiggle=2;fontColor=#ffffff;" parent="lTskOxw1Glk7iutnJEJL-34" vertex="1">
          <mxGeometry y="30" width="330" height="30" as="geometry" />
        </mxCell>
        <mxCell id="lTskOxw1Glk7iutnJEJL-35" value="Poll E-Mails" style="text;strokeColor=#005700;fillColor=#008a00;align=left;verticalAlign=middle;spacingLeft=4;spacingRight=4;overflow=hidden;points=[[0,0.5],[1,0.5]];portConstraint=eastwest;rotatable=0;whiteSpace=wrap;html=1;fontSize=20;fontFamily=Architects Daughter;labelBackgroundColor=none;rounded=1;sketch=1;curveFitting=1;jiggle=2;fontColor=#ffffff;" parent="lTskOxw1Glk7iutnJEJL-34" vertex="1">
          <mxGeometry y="60" width="330" height="30" as="geometry" />
        </mxCell>
        <mxCell id="lTskOxw1Glk7iutnJEJL-37" value="Filter E-Mails" style="text;strokeColor=#005700;fillColor=#008a00;align=left;verticalAlign=middle;spacingLeft=4;spacingRight=4;overflow=hidden;points=[[0,0.5],[1,0.5]];portConstraint=eastwest;rotatable=0;whiteSpace=wrap;html=1;fontSize=20;fontFamily=Architects Daughter;labelBackgroundColor=none;rounded=1;sketch=1;curveFitting=1;jiggle=2;fontColor=#ffffff;" parent="lTskOxw1Glk7iutnJEJL-34" vertex="1">
          <mxGeometry y="90" width="330" height="30" as="geometry" />
        </mxCell>
        <mxCell id="lTskOxw1Glk7iutnJEJL-36" value="Parse E-Mails" style="text;strokeColor=#005700;fillColor=#008a00;align=left;verticalAlign=middle;spacingLeft=4;spacingRight=4;overflow=hidden;points=[[0,0.5],[1,0.5]];portConstraint=eastwest;rotatable=0;whiteSpace=wrap;html=1;fontSize=20;fontFamily=Architects Daughter;labelBackgroundColor=none;rounded=1;sketch=1;curveFitting=1;jiggle=2;fontColor=#ffffff;" parent="lTskOxw1Glk7iutnJEJL-34" vertex="1">
          <mxGeometry y="120" width="330" height="30" as="geometry" />
        </mxCell>
        <mxCell id="lTskOxw1Glk7iutnJEJL-38" value="Register Reservation" style="text;strokeColor=#005700;fillColor=#008a00;align=left;verticalAlign=middle;spacingLeft=4;spacingRight=4;overflow=hidden;points=[[0,0.5],[1,0.5]];portConstraint=eastwest;rotatable=0;whiteSpace=wrap;html=1;fontSize=20;fontFamily=Architects Daughter;labelBackgroundColor=none;rounded=1;sketch=1;curveFitting=1;jiggle=2;fontColor=#ffffff;" parent="lTskOxw1Glk7iutnJEJL-34" vertex="1">
          <mxGeometry y="150" width="330" height="30" as="geometry" />
        </mxCell>
        <mxCell id="lTskOxw1Glk7iutnJEJL-41" value="Remove Trips" style="text;strokeColor=#005700;fillColor=#008a00;align=left;verticalAlign=middle;spacingLeft=4;spacingRight=4;overflow=hidden;points=[[0,0.5],[1,0.5]];portConstraint=eastwest;rotatable=0;whiteSpace=wrap;html=1;fontSize=20;fontFamily=Architects Daughter;labelBackgroundColor=none;rounded=1;sketch=1;curveFitting=1;jiggle=2;fontColor=#ffffff;" parent="lTskOxw1Glk7iutnJEJL-34" vertex="1">
          <mxGeometry y="180" width="330" height="30" as="geometry" />
        </mxCell>
        <mxCell id="lTskOxw1Glk7iutnJEJL-39" value="Group reservations to trips" style="text;strokeColor=#005700;fillColor=#008a00;align=left;verticalAlign=middle;spacingLeft=4;spacingRight=4;overflow=hidden;points=[[0,0.5],[1,0.5]];portConstraint=eastwest;rotatable=0;whiteSpace=wrap;html=1;fontSize=20;fontFamily=Architects Daughter;labelBackgroundColor=none;rounded=1;sketch=1;curveFitting=1;jiggle=2;fontColor=#ffffff;" parent="lTskOxw1Glk7iutnJEJL-34" vertex="1">
          <mxGeometry y="210" width="330" height="30" as="geometry" />
        </mxCell>
        <mxCell id="lTskOxw1Glk7iutnJEJL-40" value="Agency Updates" style="text;strokeColor=#005700;fillColor=#008a00;align=left;verticalAlign=middle;spacingLeft=4;spacingRight=4;overflow=hidden;points=[[0,0.5],[1,0.5]];portConstraint=eastwest;rotatable=0;whiteSpace=wrap;html=1;fontSize=20;fontFamily=Architects Daughter;labelBackgroundColor=none;rounded=1;sketch=1;curveFitting=1;jiggle=2;fontColor=#ffffff;" parent="lTskOxw1Glk7iutnJEJL-34" vertex="1">
          <mxGeometry y="240" width="330" height="30" as="geometry" />
        </mxCell>
        <mxCell id="lTskOxw1Glk7iutnJEJL-46" style="edgeStyle=orthogonalEdgeStyle;rounded=1;hachureGap=4;orthogonalLoop=1;jettySize=auto;html=1;fontFamily=Architects Daughter;fontSource=https%3A%2F%2Ffonts.googleapis.com%2Fcss%3Ffamily%3DArchitects%2BDaughter;fontSize=16;dashed=1;labelBackgroundColor=none;fontColor=default;dashPattern=12 12;sketch=1;curveFitting=1;jiggle=2;strokeColor=#005700;fillColor=#008a00;" parent="1" source="lTskOxw1Glk7iutnJEJL-43" target="lTskOxw1Glk7iutnJEJL-45" edge="1">
          <mxGeometry relative="1" as="geometry" />
        </mxCell>
        <mxCell id="lTskOxw1Glk7iutnJEJL-43" value="Mail Reciever and filterer" style="ellipse;whiteSpace=wrap;html=1;hachureGap=4;fontFamily=Architects Daughter;fontSource=https%3A%2F%2Ffonts.googleapis.com%2Fcss%3Ffamily%3DArchitects%2BDaughter;fontSize=20;labelBackgroundColor=none;rounded=1;sketch=1;curveFitting=1;jiggle=2;fillColor=#008a00;strokeColor=#005700;fontColor=#ffffff;" parent="1" vertex="1">
          <mxGeometry x="680" y="760" width="160" height="70" as="geometry" />
        </mxCell>
        <mxCell id="lTskOxw1Glk7iutnJEJL-44" style="edgeStyle=orthogonalEdgeStyle;rounded=1;hachureGap=4;orthogonalLoop=1;jettySize=auto;html=1;fontFamily=Architects Daughter;fontSource=https%3A%2F%2Ffonts.googleapis.com%2Fcss%3Ffamily%3DArchitects%2BDaughter;fontSize=16;labelBackgroundColor=none;fontColor=default;sketch=1;curveFitting=1;jiggle=2;strokeColor=#005700;fillColor=#008a00;" parent="1" source="lTskOxw1Glk7iutnJEJL-35" target="lTskOxw1Glk7iutnJEJL-43" edge="1">
          <mxGeometry relative="1" as="geometry" />
        </mxCell>
        <mxCell id="lTskOxw1Glk7iutnJEJL-50" style="edgeStyle=orthogonalEdgeStyle;rounded=1;hachureGap=4;orthogonalLoop=1;jettySize=auto;html=1;fontFamily=Architects Daughter;fontSource=https%3A%2F%2Ffonts.googleapis.com%2Fcss%3Ffamily%3DArchitects%2BDaughter;fontSize=16;dashed=1;labelBackgroundColor=none;fontColor=default;dashPattern=12 12;sketch=1;curveFitting=1;jiggle=2;strokeColor=#005700;fillColor=#008a00;" parent="1" source="lTskOxw1Glk7iutnJEJL-45" target="lTskOxw1Glk7iutnJEJL-49" edge="1">
          <mxGeometry relative="1" as="geometry">
            <Array as="points">
              <mxPoint x="1140" y="870" />
              <mxPoint x="1140" y="870" />
            </Array>
          </mxGeometry>
        </mxCell>
        <mxCell id="lTskOxw1Glk7iutnJEJL-45" value="Mail Parser" style="ellipse;whiteSpace=wrap;html=1;hachureGap=4;fontFamily=Architects Daughter;fontSource=https%3A%2F%2Ffonts.googleapis.com%2Fcss%3Ffamily%3DArchitects%2BDaughter;fontSize=20;labelBackgroundColor=none;rounded=1;sketch=1;curveFitting=1;jiggle=2;fillColor=#008a00;strokeColor=#005700;fontColor=#ffffff;" parent="1" vertex="1">
          <mxGeometry x="950" y="830" width="160" height="65" as="geometry" />
        </mxCell>
        <mxCell id="lTskOxw1Glk7iutnJEJL-47" style="edgeStyle=orthogonalEdgeStyle;rounded=1;hachureGap=4;orthogonalLoop=1;jettySize=auto;html=1;fontFamily=Architects Daughter;fontSource=https%3A%2F%2Ffonts.googleapis.com%2Fcss%3Ffamily%3DArchitects%2BDaughter;fontSize=16;labelBackgroundColor=none;fontColor=default;sketch=1;curveFitting=1;jiggle=2;strokeColor=#005700;fillColor=#008a00;" parent="1" source="lTskOxw1Glk7iutnJEJL-36" target="lTskOxw1Glk7iutnJEJL-45" edge="1">
          <mxGeometry relative="1" as="geometry" />
        </mxCell>
        <mxCell id="lTskOxw1Glk7iutnJEJL-69" style="edgeStyle=orthogonalEdgeStyle;rounded=0;sketch=1;hachureGap=4;jiggle=2;curveFitting=1;orthogonalLoop=1;jettySize=auto;html=1;fontFamily=Architects Daughter;fontSource=https%3A%2F%2Ffonts.googleapis.com%2Fcss%3Ffamily%3DArchitects%2BDaughter;fontSize=16;dashed=1;dashPattern=12 12;strokeColor=#005700;fillColor=#008a00;" parent="1" source="lTskOxw1Glk7iutnJEJL-49" target="lTskOxw1Glk7iutnJEJL-66" edge="1">
          <mxGeometry relative="1" as="geometry">
            <Array as="points">
              <mxPoint x="1185" y="734" />
              <mxPoint x="1104" y="734" />
              <mxPoint x="1104" y="730" />
              <mxPoint x="620" y="730" />
            </Array>
          </mxGeometry>
        </mxCell>
        <mxCell id="lTskOxw1Glk7iutnJEJL-49" value="Reservation Orchestrator" style="ellipse;whiteSpace=wrap;html=1;hachureGap=4;fontFamily=Architects Daughter;fontSource=https%3A%2F%2Ffonts.googleapis.com%2Fcss%3Ffamily%3DArchitects%2BDaughter;fontSize=20;labelBackgroundColor=none;rounded=1;sketch=1;curveFitting=1;jiggle=2;fillColor=#008a00;strokeColor=#005700;fontColor=#ffffff;" parent="1" vertex="1">
          <mxGeometry x="1260" y="451" width="150" height="70" as="geometry" />
        </mxCell>
        <mxCell id="ejbAzaZ3bpdmgrdd9fdl-7" style="edgeStyle=orthogonalEdgeStyle;rounded=0;sketch=1;hachureGap=4;jiggle=2;curveFitting=1;orthogonalLoop=1;jettySize=auto;html=1;fontFamily=Architects Daughter;fontSource=https%3A%2F%2Ffonts.googleapis.com%2Fcss%3Ffamily%3DArchitects%2BDaughter;fontSize=16;exitX=1;exitY=0.5;exitDx=0;exitDy=0;strokeColor=#005700;fillColor=#008a00;" parent="1" source="lTskOxw1Glk7iutnJEJL-49" target="ejbAzaZ3bpdmgrdd9fdl-6" edge="1">
          <mxGeometry relative="1" as="geometry">
            <Array as="points">
              <mxPoint x="1410" y="479" />
              <mxPoint x="1461" y="479" />
              <mxPoint x="1461" y="477" />
              <mxPoint x="1502" y="477" />
              <mxPoint x="1502" y="595" />
              <mxPoint x="1780" y="595" />
              <mxPoint x="1780" y="100" />
              <mxPoint x="430" y="100" />
              <mxPoint x="430" y="145" />
            </Array>
            <mxPoint x="1400" y="819" as="sourcePoint" />
          </mxGeometry>
        </mxCell>
        <mxCell id="lTskOxw1Glk7iutnJEJL-54" style="edgeStyle=orthogonalEdgeStyle;rounded=0;sketch=1;hachureGap=4;jiggle=2;curveFitting=1;orthogonalLoop=1;jettySize=auto;html=1;fontFamily=Architects Daughter;fontSource=https%3A%2F%2Ffonts.googleapis.com%2Fcss%3Ffamily%3DArchitects%2BDaughter;fontSize=16;strokeColor=#005700;fillColor=#008a00;" parent="1" source="lTskOxw1Glk7iutnJEJL-2" target="lTskOxw1Glk7iutnJEJL-49" edge="1">
          <mxGeometry relative="1" as="geometry">
            <mxPoint x="480" y="140" as="sourcePoint" />
            <Array as="points">
              <mxPoint x="1320" y="200" />
            </Array>
          </mxGeometry>
        </mxCell>
        <mxCell id="lTskOxw1Glk7iutnJEJL-55" value="Trip Sharer" style="ellipse;whiteSpace=wrap;html=1;hachureGap=4;fontFamily=Architects Daughter;fontSource=https%3A%2F%2Ffonts.googleapis.com%2Fcss%3Ffamily%3DArchitects%2BDaughter;fontSize=20;labelBackgroundColor=none;rounded=1;sketch=1;curveFitting=1;jiggle=2;fillColor=#008a00;strokeColor=#005700;fontColor=#ffffff;" parent="1" vertex="1">
          <mxGeometry x="388" y="410" width="222" height="70" as="geometry" />
        </mxCell>
        <mxCell id="lTskOxw1Glk7iutnJEJL-62" style="edgeStyle=orthogonalEdgeStyle;rounded=0;sketch=1;hachureGap=4;jiggle=2;curveFitting=1;orthogonalLoop=1;jettySize=auto;html=1;fontFamily=Architects Daughter;fontSource=https%3A%2F%2Ffonts.googleapis.com%2Fcss%3Ffamily%3DArchitects%2BDaughter;fontSize=16;strokeColor=#005700;fillColor=#008a00;" parent="1" source="lTskOxw1Glk7iutnJEJL-38" target="lTskOxw1Glk7iutnJEJL-49" edge="1">
          <mxGeometry relative="1" as="geometry">
            <Array as="points">
              <mxPoint x="901" y="1015" />
              <mxPoint x="901" y="1013" />
              <mxPoint x="1206" y="1013" />
            </Array>
          </mxGeometry>
        </mxCell>
        <mxCell id="lTskOxw1Glk7iutnJEJL-63" style="edgeStyle=orthogonalEdgeStyle;rounded=0;sketch=1;hachureGap=4;jiggle=2;curveFitting=1;orthogonalLoop=1;jettySize=auto;html=1;fontFamily=Architects Daughter;fontSource=https%3A%2F%2Ffonts.googleapis.com%2Fcss%3Ffamily%3DArchitects%2BDaughter;fontSize=16;entryX=0.987;entryY=0.686;entryDx=0;entryDy=0;entryPerimeter=0;strokeColor=#005700;fillColor=#008a00;" parent="1" source="lTskOxw1Glk7iutnJEJL-39" target="lTskOxw1Glk7iutnJEJL-49" edge="1">
          <mxGeometry relative="1" as="geometry">
            <Array as="points">
              <mxPoint x="1680" y="1075" />
              <mxPoint x="1680" y="868" />
            </Array>
            <mxPoint x="420" y="1070" as="sourcePoint" />
          </mxGeometry>
        </mxCell>
        <mxCell id="lTskOxw1Glk7iutnJEJL-87" style="edgeStyle=orthogonalEdgeStyle;rounded=0;sketch=1;hachureGap=4;jiggle=2;curveFitting=1;orthogonalLoop=1;jettySize=auto;html=1;fontFamily=Architects Daughter;fontSource=https%3A%2F%2Ffonts.googleapis.com%2Fcss%3Ffamily%3DArchitects%2BDaughter;fontSize=16;dashed=1;dashPattern=12 12;strokeColor=#005700;fillColor=#008a00;" parent="1" source="lTskOxw1Glk7iutnJEJL-64" target="lTskOxw1Glk7iutnJEJL-85" edge="1">
          <mxGeometry relative="1" as="geometry" />
        </mxCell>
        <mxCell id="lTskOxw1Glk7iutnJEJL-64" value="Agency API Subscriber" style="ellipse;whiteSpace=wrap;html=1;hachureGap=4;fontFamily=Architects Daughter;fontSource=https%3A%2F%2Ffonts.googleapis.com%2Fcss%3Ffamily%3DArchitects%2BDaughter;fontSize=20;labelBackgroundColor=none;rounded=1;sketch=1;curveFitting=1;jiggle=2;fillColor=#008a00;strokeColor=#005700;fontColor=#ffffff;" parent="1" vertex="1">
          <mxGeometry x="640" y="1130" width="150" height="70" as="geometry" />
        </mxCell>
        <mxCell id="lTskOxw1Glk7iutnJEJL-65" style="edgeStyle=orthogonalEdgeStyle;rounded=0;sketch=1;hachureGap=4;jiggle=2;curveFitting=1;orthogonalLoop=1;jettySize=auto;html=1;fontFamily=Architects Daughter;fontSource=https%3A%2F%2Ffonts.googleapis.com%2Fcss%3Ffamily%3DArchitects%2BDaughter;fontSize=16;strokeColor=#005700;fillColor=#008a00;" parent="1" source="lTskOxw1Glk7iutnJEJL-40" target="lTskOxw1Glk7iutnJEJL-64" edge="1">
          <mxGeometry relative="1" as="geometry" />
        </mxCell>
        <mxCell id="lTskOxw1Glk7iutnJEJL-91" style="edgeStyle=orthogonalEdgeStyle;rounded=0;sketch=1;hachureGap=4;jiggle=2;curveFitting=1;orthogonalLoop=1;jettySize=auto;html=1;fontFamily=Architects Daughter;fontSource=https%3A%2F%2Ffonts.googleapis.com%2Fcss%3Ffamily%3DArchitects%2BDaughter;fontSize=16;strokeColor=#005700;fillColor=#008a00;" parent="1" source="lTskOxw1Glk7iutnJEJL-66" target="lTskOxw1Glk7iutnJEJL-32" edge="1">
          <mxGeometry relative="1" as="geometry">
            <Array as="points">
              <mxPoint x="510" y="565" />
              <mxPoint x="510" y="645" />
            </Array>
          </mxGeometry>
        </mxCell>
        <mxCell id="lTskOxw1Glk7iutnJEJL-66" value="Analytics Capture" style="ellipse;whiteSpace=wrap;html=1;hachureGap=4;fontFamily=Architects Daughter;fontSource=https%3A%2F%2Ffonts.googleapis.com%2Fcss%3Ffamily%3DArchitects%2BDaughter;fontSize=20;labelBackgroundColor=none;rounded=1;sketch=1;curveFitting=1;jiggle=2;fillColor=#008a00;strokeColor=#005700;fontColor=#ffffff;" parent="1" vertex="1">
          <mxGeometry x="530" y="530" width="150" height="70" as="geometry" />
        </mxCell>
        <mxCell id="lTskOxw1Glk7iutnJEJL-67" style="edgeStyle=orthogonalEdgeStyle;rounded=0;sketch=1;hachureGap=4;jiggle=2;curveFitting=1;orthogonalLoop=1;jettySize=auto;html=1;fontFamily=Architects Daughter;fontSource=https%3A%2F%2Ffonts.googleapis.com%2Fcss%3Ffamily%3DArchitects%2BDaughter;fontSize=16;strokeColor=#005700;fillColor=#008a00;" parent="1" source="lTskOxw1Glk7iutnJEJL-42" target="lTskOxw1Glk7iutnJEJL-66" edge="1">
          <mxGeometry relative="1" as="geometry">
            <Array as="points">
              <mxPoint x="600" y="895" />
            </Array>
          </mxGeometry>
        </mxCell>
        <mxCell id="ejbAzaZ3bpdmgrdd9fdl-8" style="edgeStyle=orthogonalEdgeStyle;rounded=0;sketch=1;hachureGap=4;jiggle=2;curveFitting=1;orthogonalLoop=1;jettySize=auto;html=1;fontFamily=Architects Daughter;fontSource=https%3A%2F%2Ffonts.googleapis.com%2Fcss%3Ffamily%3DArchitects%2BDaughter;fontSize=16;strokeColor=#005700;fillColor=#008a00;" parent="1" source="lTskOxw1Glk7iutnJEJL-73" target="lTskOxw1Glk7iutnJEJL-4" edge="1">
          <mxGeometry relative="1" as="geometry" />
        </mxCell>
        <mxCell id="lTskOxw1Glk7iutnJEJL-73" value="Yearly Report Collector" style="ellipse;whiteSpace=wrap;html=1;hachureGap=4;fontFamily=Architects Daughter;fontSource=https%3A%2F%2Ffonts.googleapis.com%2Fcss%3Ffamily%3DArchitects%2BDaughter;fontSize=20;labelBackgroundColor=none;rounded=1;sketch=1;curveFitting=1;jiggle=2;fillColor=#008a00;strokeColor=#005700;fontColor=#ffffff;" parent="1" vertex="1">
          <mxGeometry x="1271" y="120" width="170" height="70" as="geometry" />
        </mxCell>
        <mxCell id="lTskOxw1Glk7iutnJEJL-82" style="edgeStyle=orthogonalEdgeStyle;rounded=0;sketch=1;hachureGap=4;jiggle=2;curveFitting=1;orthogonalLoop=1;jettySize=auto;html=1;fontFamily=Architects Daughter;fontSource=https%3A%2F%2Ffonts.googleapis.com%2Fcss%3Ffamily%3DArchitects%2BDaughter;fontSize=16;dashed=1;dashPattern=12 12;strokeColor=#005700;fillColor=#008a00;" parent="1" source="lTskOxw1Glk7iutnJEJL-80" target="lTskOxw1Glk7iutnJEJL-43" edge="1">
          <mxGeometry relative="1" as="geometry">
            <Array as="points">
              <mxPoint x="790" y="295" />
            </Array>
          </mxGeometry>
        </mxCell>
        <mxCell id="lTskOxw1Glk7iutnJEJL-80" value="Mail Access Provider" style="ellipse;whiteSpace=wrap;html=1;hachureGap=4;fontFamily=Architects Daughter;fontSource=https%3A%2F%2Ffonts.googleapis.com%2Fcss%3Ffamily%3DArchitects%2BDaughter;fontSize=20;labelBackgroundColor=none;rounded=1;sketch=1;curveFitting=1;jiggle=2;fillColor=#008a00;strokeColor=#005700;fontColor=#ffffff;" parent="1" vertex="1">
          <mxGeometry x="610" y="260" width="150" height="70" as="geometry" />
        </mxCell>
        <mxCell id="lTskOxw1Glk7iutnJEJL-81" style="edgeStyle=orthogonalEdgeStyle;rounded=0;sketch=1;hachureGap=4;jiggle=2;curveFitting=1;orthogonalLoop=1;jettySize=auto;html=1;fontFamily=Architects Daughter;fontSource=https%3A%2F%2Ffonts.googleapis.com%2Fcss%3Ffamily%3DArchitects%2BDaughter;fontSize=16;strokeColor=#005700;fillColor=#008a00;" parent="1" source="lTskOxw1Glk7iutnJEJL-79" target="lTskOxw1Glk7iutnJEJL-80" edge="1">
          <mxGeometry relative="1" as="geometry" />
        </mxCell>
        <mxCell id="lTskOxw1Glk7iutnJEJL-84" style="edgeStyle=orthogonalEdgeStyle;rounded=0;sketch=1;hachureGap=4;jiggle=2;curveFitting=1;orthogonalLoop=1;jettySize=auto;html=1;fontFamily=Architects Daughter;fontSource=https%3A%2F%2Ffonts.googleapis.com%2Fcss%3Ffamily%3DArchitects%2BDaughter;fontSize=16;strokeColor=#005700;fillColor=#008a00;" parent="1" source="lTskOxw1Glk7iutnJEJL-83" target="lTskOxw1Glk7iutnJEJL-45" edge="1">
          <mxGeometry relative="1" as="geometry">
            <Array as="points">
              <mxPoint x="410" y="295" />
              <mxPoint x="410" y="350" />
              <mxPoint x="1020" y="350" />
            </Array>
            <mxPoint x="450" y="290" as="sourcePoint" />
          </mxGeometry>
        </mxCell>
        <mxCell id="lTskOxw1Glk7iutnJEJL-89" style="edgeStyle=orthogonalEdgeStyle;rounded=0;sketch=1;hachureGap=4;jiggle=2;curveFitting=1;orthogonalLoop=1;jettySize=auto;html=1;fontFamily=Architects Daughter;fontSource=https%3A%2F%2Ffonts.googleapis.com%2Fcss%3Ffamily%3DArchitects%2BDaughter;fontSize=16;strokeColor=#005700;fillColor=#008a00;" parent="1" source="lTskOxw1Glk7iutnJEJL-85" target="lTskOxw1Glk7iutnJEJL-88" edge="1">
          <mxGeometry relative="1" as="geometry">
            <Array as="points">
              <mxPoint x="1810" y="1165" />
              <mxPoint x="1810" y="60" />
              <mxPoint x="410" y="60" />
              <mxPoint x="410" y="120" />
            </Array>
          </mxGeometry>
        </mxCell>
        <mxCell id="lTskOxw1Glk7iutnJEJL-85" value="Notification Sender" style="ellipse;whiteSpace=wrap;html=1;hachureGap=4;fontFamily=Architects Daughter;fontSource=https%3A%2F%2Ffonts.googleapis.com%2Fcss%3Ffamily%3DArchitects%2BDaughter;fontSize=20;labelBackgroundColor=none;rounded=1;sketch=1;curveFitting=1;jiggle=2;fillColor=#008a00;strokeColor=#005700;fontColor=#ffffff;" parent="1" vertex="1">
          <mxGeometry x="1000" y="1130" width="150" height="70" as="geometry" />
        </mxCell>
        <mxCell id="lTskOxw1Glk7iutnJEJL-92" style="edgeStyle=orthogonalEdgeStyle;rounded=0;sketch=1;hachureGap=4;jiggle=2;curveFitting=1;orthogonalLoop=1;jettySize=auto;html=1;fontFamily=Architects Daughter;fontSource=https%3A%2F%2Ffonts.googleapis.com%2Fcss%3Ffamily%3DArchitects%2BDaughter;fontSize=16;strokeColor=#005700;fillColor=#008a00;" parent="1" source="lTskOxw1Glk7iutnJEJL-37" target="lTskOxw1Glk7iutnJEJL-43" edge="1">
          <mxGeometry relative="1" as="geometry">
            <Array as="points">
              <mxPoint x="780" y="955" />
            </Array>
          </mxGeometry>
        </mxCell>
        <mxCell id="lTskOxw1Glk7iutnJEJL-94" style="edgeStyle=orthogonalEdgeStyle;rounded=0;sketch=1;hachureGap=4;jiggle=2;curveFitting=1;orthogonalLoop=1;jettySize=auto;html=1;fontFamily=Architects Daughter;fontSource=https%3A%2F%2Ffonts.googleapis.com%2Fcss%3Ffamily%3DArchitects%2BDaughter;fontSize=16;strokeColor=#005700;fillColor=#008a00;" parent="1" source="lTskOxw1Glk7iutnJEJL-93" target="lTskOxw1Glk7iutnJEJL-55" edge="1">
          <mxGeometry relative="1" as="geometry">
            <Array as="points">
              <mxPoint x="380" y="325" />
              <mxPoint x="380" y="375" />
              <mxPoint x="530" y="375" />
            </Array>
            <mxPoint x="360" y="300" as="sourcePoint" />
          </mxGeometry>
        </mxCell>
        <mxCell id="ejbAzaZ3bpdmgrdd9fdl-3" value="Agency Help Requestor" style="ellipse;whiteSpace=wrap;html=1;hachureGap=4;fontFamily=Architects Daughter;fontSource=https%3A%2F%2Ffonts.googleapis.com%2Fcss%3Ffamily%3DArchitects%2BDaughter;fontSize=20;labelBackgroundColor=none;rounded=1;sketch=1;curveFitting=1;jiggle=2;fillColor=#008a00;strokeColor=#005700;fontColor=#ffffff;" parent="1" vertex="1">
          <mxGeometry x="820" y="210" width="150" height="70" as="geometry" />
        </mxCell>
        <mxCell id="ejbAzaZ3bpdmgrdd9fdl-4" style="edgeStyle=orthogonalEdgeStyle;rounded=0;sketch=1;hachureGap=4;jiggle=2;curveFitting=1;orthogonalLoop=1;jettySize=auto;html=1;fontFamily=Architects Daughter;fontSource=https%3A%2F%2Ffonts.googleapis.com%2Fcss%3Ffamily%3DArchitects%2BDaughter;fontSize=16;strokeColor=#005700;fillColor=#008a00;" parent="1" source="lTskOxw1Glk7iutnJEJL-74" target="ejbAzaZ3bpdmgrdd9fdl-3" edge="1">
          <mxGeometry relative="1" as="geometry" />
        </mxCell>
        <mxCell id="ejbAzaZ3bpdmgrdd9fdl-9" value="Reservation Archiver" style="ellipse;whiteSpace=wrap;html=1;hachureGap=4;fontFamily=Architects Daughter;fontSource=https%3A%2F%2Ffonts.googleapis.com%2Fcss%3Ffamily%3DArchitects%2BDaughter;fontSize=20;labelBackgroundColor=none;rounded=1;sketch=1;curveFitting=1;jiggle=2;fillColor=#008a00;strokeColor=#005700;fontColor=#ffffff;" parent="1" vertex="1">
          <mxGeometry x="1489" y="914" width="150" height="70" as="geometry" />
        </mxCell>
        <mxCell id="ejbAzaZ3bpdmgrdd9fdl-10" style="edgeStyle=orthogonalEdgeStyle;rounded=0;sketch=1;hachureGap=4;jiggle=2;curveFitting=1;orthogonalLoop=1;jettySize=auto;html=1;entryX=0.551;entryY=0.998;entryDx=0;entryDy=0;entryPerimeter=0;fontFamily=Architects Daughter;fontSource=https%3A%2F%2Ffonts.googleapis.com%2Fcss%3Ffamily%3DArchitects%2BDaughter;fontSize=16;strokeColor=#005700;fillColor=#008a00;" parent="1" source="lTskOxw1Glk7iutnJEJL-41" target="ejbAzaZ3bpdmgrdd9fdl-9" edge="1">
          <mxGeometry relative="1" as="geometry">
            <Array as="points">
              <mxPoint x="1583" y="1040" />
            </Array>
          </mxGeometry>
        </mxCell>
      </root>
    </mxGraphModel>
  </diagram>
</mxfile>
